<?xml version="1.0" encoding="utf-8"?>
<svg viewBox="97.778 136.533 195.9276 195.8932" xmlns="http://www.w3.org/2000/svg">
  <path style="fill: rgb(118, 210, 117);" d="M 136.686 136.533 L 175.594 175.441 L 136.686 214.349 L 97.778 175.441 L 136.686 136.533 Z" transform="matrix(1, 0, 0, 1, 0, 1.4210854715202004e-14)"/>
  <path style="fill: rgb(67, 160, 71);" d="M 97.778 175.441 L 97.778 214.349 L 136.686 253.257 L 136.686 214.349 L 97.778 175.441 Z" transform="matrix(1, 0, 0, 1, 0, 1.4210854715202004e-14)"/>
  <path style="fill: rgb(118, 210, 117);" d="M 214.502 136.533 L 253.41 175.441 L 214.502 214.349 L 175.594 175.441 L 214.502 136.533 Z" transform="matrix(1, 0, 0, 1, 0, 1.4210854715202004e-14)"/>
  <path style="fill: rgb(67, 160, 71);" d="M 253.41 175.441 L 253.41 214.349 L 214.502 253.257 L 214.502 214.349 L 253.41 175.441 Z" transform="matrix(1, 0, 0, 1, 0, 1.4210854715202004e-14)"/>
  <path style="fill: rgb(67, 160, 71);" d="M 175.594 175.441 L 214.502 214.349 L 175.594 253.257 L 136.686 214.349 L 175.594 175.441 Z" transform="matrix(1, 0, 0, 1, 0, 1.4210854715202004e-14)"/>
  <path style="fill: rgb(0, 112, 26);" d="M 175.594 253.257 L 175.594 292.165 L 136.686 253.257 L 136.686 214.349 L 175.594 253.257 Z" transform="matrix(1, 0, 0, 1, 0, 1.4210854715202004e-14)"/>
  <path style="fill: rgb(0, 67, 0);" d="M 175.594 253.257 L 214.502 214.349 L 214.502 253.257 L 175.594 292.165 L 175.594 253.257 Z" transform="matrix(1, 0, 0, 1, 0, 1.4210854715202004e-14)"/>
  <path fill="#AFB1B3" fill-rule="evenodd" d="M 274.48 309.373 C 264.079 321.614 248.569 329.388 231.256 329.388 C 203.296 329.388 180.069 309.146 175.423 282.519 L 192.993 283.132 C 197.582 299.965 212.976 312.349 231.266 312.349 C 243.554 312.349 254.539 306.755 261.823 297.98 L 241.183 279.394 L 288.345 276.929 L 290.821 324.089 L 274.48 309.373 Z M 188.08 235.998 C 198.47 223.785 213.961 216.038 231.256 216.038 C 258.828 216.038 281.809 235.744 286.882 261.843 L 269.266 261.228 C 264.344 244.897 249.194 233.005 231.266 233.005 C 218.978 233.005 207.982 238.596 200.708 247.371 L 221.395 265.996 L 174.23 268.463 L 171.757 221.301 L 188.08 235.998 Z" style="transform-origin: 231.289px 272.713px;" transform="matrix(0.99862998724, 0.052336014807, -0.052336014807, 0.99862998724, -0.000001902707, 0.00000216797)"/>
  <path fill="#6E6E6E" fill-rule="evenodd" d="M 274.419 309.311 C 264.001 321.595 248.449 329.38 231.079 329.38 C 203.054 329.38 179.764 309.093 175.105 282.393 L 192.712 283.009 C 197.314 299.886 212.761 312.294 231.098 312.294 C 243.42 312.294 254.434 306.687 261.737 297.889 L 241.042 279.259 L 288.332 276.778 L 290.813 324.066 L 274.419 309.311 Z M 187.795 235.739 C 198.214 223.493 213.737 215.726 231.079 215.726 C 258.735 215.726 281.778 235.483 286.863 261.652 L 269.19 261.036 C 264.266 244.661 249.074 232.736 231.098 232.736 C 218.766 232.736 207.751 238.343 200.459 247.142 L 221.2 265.82 L 173.901 268.301 L 171.429 221.011 L 187.795 235.739 Z" style="transform-origin: 231.121px 272.553px;" transform="matrix(0.99862998724, 0.052336014807, -0.052336014807, 0.99862998724, -0.000003413484, 0.000001654584)"/>
</svg>