<svg width="16" height="16" viewBox="0 0 16 16" fill="none" xmlns="http://www.w3.org/2000/svg">
<path d="M4.5 1L8 4.5L4.5 8L1 4.5L4.5 1Z" fill="#76D275"/>
<path d="M1 4.5V8L4.5 11.5V8L1 4.5Z" fill="#43A047"/>
<path d="M11.5 1L15 4.5L11.5 8L8 4.5L11.5 1Z" fill="#76D275"/>
<path d="M8 11.5V15L4.5 11.5V8L8 11.5Z" fill="#00701A"/>
<circle cx="12.5" cy="12.5" r="3.5" fill="#E55765"/>
<path d="M12.5 10C12.2239 10 12 10.2239 12 10.5V12.5C12 12.7761 12.2239 13 12.5 13C12.7761 13 13 12.7761 13 12.5V10.5C13 10.2239 12.7761 10 12.5 10Z" fill="white"/>
<path d="M12.5 15C12.7761 15 13 14.7761 13 14.5C13 14.2239 12.7761 14 12.5 14C12.2239 14 12 14.2239 12 14.5C12 14.7761 12.2239 15 12.5 15Z" fill="white"/>
<path d="M11.3516 8.14767C11.4005 8.13481 11.4497 8.12275 11.4992 8.11151V8L11.3516 8.14767Z" fill="#43A047"/>
<path d="M15 8V4.5L11.5 8V8.11151C11.8216 8.03853 12.1563 8 12.5 8C13.227 8 13.9137 8.17239 14.5215 8.47851L15 8Z" fill="#43A047"/>
<path d="M11.5 8L8 4.5L4.5 8L8 11.5L8.14767 11.3523C8.5587 9.78935 9.78935 8.5587 11.3523 8.14767L11.5 8Z" fill="#43A047"/>
</svg>
