<?xml version="1.0" encoding="utf-8"?>
<svg viewBox="97.778 136.533 195.9276 195.893" xmlns="http://www.w3.org/2000/svg">
  <path style="fill: rgb(118, 210, 117);" d="M 136.686 136.533 L 175.594 175.441 L 136.686 214.349 L 97.778 175.441 L 136.686 136.533 Z" transform="matrix(1, 0, 0, 1, 0, 1.4210854715202004e-14)"/>
  <path style="fill: rgb(67, 160, 71);" d="M 97.778 175.441 L 97.778 214.349 L 136.686 253.257 L 136.686 214.349 L 97.778 175.441 Z" transform="matrix(1, 0, 0, 1, 0, 1.4210854715202004e-14)"/>
  <path style="fill: rgb(118, 210, 117);" d="M 214.502 136.533 L 253.41 175.441 L 214.502 214.349 L 175.594 175.441 L 214.502 136.533 Z" transform="matrix(1, 0, 0, 1, 0, 1.4210854715202004e-14)"/>
  <path style="fill: rgb(67, 160, 71);" d="M 253.41 175.441 L 253.41 214.349 L 214.502 253.257 L 214.502 214.349 L 253.41 175.441 Z" transform="matrix(1, 0, 0, 1, 0, 1.4210854715202004e-14)"/>
  <path style="fill: rgb(67, 160, 71);" d="M 175.594 175.441 L 214.502 214.349 L 175.594 253.257 L 136.686 214.349 L 175.594 175.441 Z" transform="matrix(1, 0, 0, 1, 0, 1.4210854715202004e-14)"/>
  <path style="fill: rgb(0, 112, 26);" d="M 175.594 253.257 L 175.594 292.165 L 136.686 253.257 L 136.686 214.349 L 175.594 253.257 Z" transform="matrix(1, 0, 0, 1, 0, 1.4210854715202004e-14)"/>
  <path style="fill: rgb(0, 67, 0);" d="M 175.594 253.257 L 214.502 214.349 L 214.502 253.257 L 175.594 292.165 L 175.594 253.257 Z" transform="matrix(1, 0, 0, 1, 0, 1.4210854715202004e-14)"/>
  <path fill="#AFB1B3" fill-rule="evenodd" d="M 274.48 309.373 C 264.079 321.614 248.569 329.388 231.256 329.388 C 203.296 329.388 180.069 309.146 175.423 282.519 L 192.993 283.132 C 197.582 299.965 212.976 312.349 231.266 312.349 C 243.554 312.349 254.539 306.755 261.823 297.98 L 241.183 279.394 L 288.345 276.929 L 290.821 324.089 L 274.48 309.373 Z M 188.08 235.998 C 198.47 223.785 213.961 216.038 231.256 216.038 C 258.828 216.038 281.809 235.744 286.882 261.843 L 269.266 261.228 C 264.344 244.897 249.194 233.005 231.266 233.005 C 218.978 233.005 207.982 238.596 200.708 247.371 L 221.395 265.996 L 174.23 268.463 L 171.757 221.301 L 188.08 235.998 Z" style="transform-origin: 231.289px 272.713px;" transform="matrix(0.99862998724, 0.052336014807, -0.052336014807, 0.99862998724, -0.000001902707, 0.00000216797)"/>
</svg>