<svg width="16" height="16" viewBox="0 0 16 16" fill="none" xmlns="http://www.w3.org/2000/svg">
<path d="M4.5 1L8 4.5L4.5 8L1 4.5L4.5 1Z" fill="#76D275"/>
<path d="M1 4.5V8L4.5 11.5V8L1 4.5Z" fill="#43A047"/>
<path d="M11.5 1L15 4.5L11.5 8L8 4.5L11.5 1Z" fill="#76D275"/>
<path d="M8 4.5L11.5 8L8 11.5L4.5 8L8 4.5Z" fill="#43A047"/>
<path d="M8 11.5V15L4.5 11.5V8L8 11.5Z" fill="#00701A"/>
<g clip-path="url(#clip0_15697_13934)">
<path fill-rule="evenodd" clip-rule="evenodd" d="M15.8612 14.546L13.4601 10.5443C13.0251 9.81923 11.9744 9.81923 11.5394 10.5443L9.13829 14.546C8.75437 15.1859 9.21528 15.9999 9.96148 15.9999H15.038C15.7842 15.9999 16.2451 15.1859 15.8612 14.546Z" fill="#F2C55C"/>
<path d="M13.0001 11.5C13.0001 11.2239 12.7762 11 12.5 11C12.2239 11 12 11.2239 12 11.5V12.5C12 12.7761 12.2239 13 12.5 13C12.7762 13 13.0001 12.7761 13.0001 12.5V11.5Z" fill="#5E4D33"/>
<path d="M12.5002 15C12.7763 15 13.0002 14.7762 13.0002 14.5001C13.0002 14.2239 12.7763 14 12.5002 14C12.224 14 12.0002 14.2238 12.0001 14.4999C12 14.7761 12.224 15 12.5002 15Z" fill="#5E4D33"/>
</g>
<path d="M15 8V4.5L11.5 8V9.24717C12.1749 8.88871 13.0121 8.92014 13.6585 9.34145L15 8Z" fill="#43A047"/>
<path d="M11.5 8L8 11.5V14.9493C8.01395 14.6406 8.10299 14.3267 8.28039 14.031L10.6815 10.0293C10.8914 9.67935 11.1771 9.41865 11.5 9.24717V8Z" fill="#004300"/>
<defs>
<clipPath id="clip0_15697_13934">
<rect width="7" height="6" fill="white" transform="translate(9 10)"/>
</clipPath>
</defs>
</svg>
