<?xml version="1.0" encoding="utf-8"?>
<svg viewBox="0 0 500 500" xmlns="http://www.w3.org/2000/svg" width="16" height="16">
  <path style="fill: rgb(226, 50, 94);" d="M 135.621 29.017 L 247.621 141.017 L 135.621 253.017 L 23.621 141.017 L 135.621 29.017 Z"/>
  <path style="fill: rgb(166, 1, 30);" d="M 23.621 141.017 L 23.621 253.017 L 135.621 365.017 L 135.621 253.017 L 23.621 141.017 Z"/>
  <path style="fill: rgb(226, 50, 94);" d="M 359.621 29.017 L 471.621 141.017 L 359.621 253.017 L 247.621 141.017 L 359.621 29.017 Z"/>
  <path style="fill: rgb(166, 1, 30);" d="M 471.621 141.017 L 471.621 253.017 L 359.621 365.017 L 359.621 253.017 L 471.621 141.017 Z"/>
  <path style="fill: rgb(166, 1, 30);" d="M 247.621 141.017 L 359.621 253.017 L 247.621 365.017 L 135.621 253.017 L 247.621 141.017 Z"/>
  <path style="fill: rgb(111, 0, 0);" d="M 247.621 365.017 L 247.621 477.017 L 135.621 365.017 L 135.621 253.017 L 247.621 365.017 Z"/>
  <path style="fill: rgb(52, 0, 0);" d="M 247.621 365.017 L 359.621 253.017 L 359.621 365.017 L 247.621 477.017 L 247.621 365.017 Z"/>
</svg>