<svg width="20" height="20" viewBox="0 0 20 20" fill="none" xmlns="http://www.w3.org/2000/svg">
<path fill-rule="evenodd" clip-rule="evenodd" d="M5.5 1L1 5.5V10L10 19L19 10V5.5L14.5 1L10 5.5L5.5 1ZM8.93934 6.56066L5.5 3.12132L3.12132 5.5L6.56066 8.93934L8.93934 6.56066ZM7.62132 10L10 12.3787L12.3787 10L10 7.62132L7.62132 10ZM13.4393 8.93934L11.0607 6.56066L14.5 3.12132L16.8787 5.5L13.4393 8.93934ZM2.5 7L5 9.5V11.8787L2.5 9.37868V7ZM9.25 16.1287L6.5 13.3787V11L9.25 13.75V16.1287ZM10.75 16.1287L13 13.8787V11.5L10.75 13.75V16.1287ZM14.5 12.3787V10L17.5 7V9.37868L14.5 12.3787Z" fill="#CED0D6"/>
</svg>
