<svg width="16" height="16" viewBox="0 0 16 16" fill="none" xmlns="http://www.w3.org/2000/svg">
<g clip-path="url(#clip0_16126_10837)">
<path d="M10.75 9L12.5 10.75L14.25 9L16 10.75V12.5L12.5 16L9 12.5V10.75L10.75 9Z" fill="#F2FCF3"/>
<path fill-rule="evenodd" clip-rule="evenodd" d="M9 12.5V10.75L10.75 9L12.5 10.75L14.25 9L16 10.75V12.5L12.5 16L9 12.5ZM12.5 12.1642L11.2892 13.375L12.5 14.5858L13.7108 13.375L12.5 12.1642ZM14.4179 12.6679L13.2071 11.4571L14.25 10.4142L15 11.1642V12.0858L14.4179 12.6679ZM11.7929 11.4571L10.75 10.4142L10 11.1642V12.0858L10.5821 12.6679L11.7929 11.4571Z" fill="#208A3C"/>
</g>
<path d="M1 3.86667C1 2.83574 1.73127 2 2.63333 2H6.1217C6.39413 2 6.65477 2.11115 6.84336 2.30775L8.46667 4L13 4C14.1046 4 15 4.89543 15 6V8.33582L14.25 7.58582L12.5 9.33582L10.75 7.58582L8 10.3358V12.9142L9.08576 14H2.63333C1.73127 14 1 13.1643 1 12.1333V3.86667Z" fill="#EBECF0"/>
<path d="M2.63333 3L6.1217 3L8.04022 5H13C13.5523 5 14 5.44771 14 6V7.83582L14.25 7.58582L15 8.33582V6C15 4.89543 14.1046 4 13 4L8.46667 4L6.84336 2.30775C6.65477 2.11115 6.39413 2 6.1217 2H2.63333C1.73127 2 1 2.83574 1 3.86667V12.1333C1 13.1643 1.73127 14 2.63333 14H9.08576L8.08576 13H2.63333C2.40481 13 2 12.7416 2 12.1333V3.86667C2 3.25841 2.40481 3 2.63333 3Z" fill="#6C707E"/>
<defs>
<clipPath id="clip0_16126_10837">
<rect width="7" height="7" fill="white" transform="translate(9 9)"/>
</clipPath>
</defs>
</svg>
