<svg width="16" height="16" viewBox="0 0 16 16" fill="none" xmlns="http://www.w3.org/2000/svg">
<g clip-path="url(#clip0_16132_490)">
<path d="M8.5 8C8.77614 8 9 8.22386 9 8.5V9.326L9.181 9.16238C9.90358 8.44447 10.9005 8 12.0002 8C13.1046 8 14.1053 8.44826 14.8286 9.17157C15.1887 9.5316 15.4806 9.96029 15.6831 10.4368C15.8159 10.7493 15.9101 11.0822 15.9597 11.4292C15.9988 11.7026 15.8089 11.9559 15.5356 11.995C15.2622 12.0341 15.0089 11.8442 14.9698 11.5708C14.9326 11.3108 14.8621 11.0617 14.7627 10.8279C14.6111 10.4711 14.3922 10.1493 14.1215 9.87868C13.5781 9.33524 12.8288 9 12.0002 9C11.1716 9 10.4223 9.33524 9.87888 9.87868L9.86997 9.88759L9.74562 10H10.5C10.7761 10 11 10.2239 11 10.5C11 10.7761 10.7761 11 10.5 11H8.5C8.22386 11 8 10.7761 8 10.5V8.5C8 8.22386 8.22386 8 8.5 8Z" fill="#3574F0"/>
<path d="M8.46491 12.005C8.73827 11.9659 8.99157 12.1558 9.03067 12.4292C9.12449 13.0851 9.43079 13.6732 9.87894 14.1213C10.4224 14.6648 11.1717 15 12.0003 15C12.8288 15 13.5781 14.6648 14.1216 14.1213L14.1305 14.1124L14.2487 14H13.5C13.2239 14 13 13.7761 13 13.5C13 13.2239 13.2239 13 13.5 13H15.5C15.7761 13 16 13.2239 16 13.5V15.5C16 15.7761 15.7761 16 15.5 16C15.2239 16 15 15.7761 15 15.5V14.6657L14.8241 14.833C14.1011 15.5536 13.1024 16 12.0003 16C10.8958 16 9.89515 15.5517 9.17184 14.8284C8.57574 14.2323 8.16618 13.4477 8.04075 12.5708C8.00165 12.2974 8.19155 12.0441 8.46491 12.005Z" fill="#3574F0"/>
<path fill-rule="evenodd" clip-rule="evenodd" d="M6.10195 5.34063L5.42617 4.80001H4.5196L3.82517 5.14722C3.75574 5.18193 3.67918 5.20001 3.60156 5.20001H1.60156C1.32542 5.20001 1.10156 4.97615 1.10156 4.70001V1.50001C1.10156 1.22386 1.32542 1.00001 1.60156 1.00001H3.60156C3.67918 1.00001 3.75574 1.01808 3.82517 1.05279L4.5196 1.40001H5.50527L6.41587 1.03577C6.47493 1.01214 6.53795 1.00001 6.60156 1.00001L9.6201 1C10.2214 0.999947 11.2251 0.999854 12.2349 1.53281C13.2745 2.08145 14.2474 3.15141 14.8784 5.14944C14.9429 5.35373 14.8701 5.57641 14.6973 5.70314C14.5246 5.82987 14.2903 5.83248 14.1148 5.70962C13.1373 5.02538 12.4882 4.70862 11.9616 4.55501C11.4879 4.41685 11.0879 4.4018 10.568 4.4002L9.30195 5.34971V7H8.30195V5.60001H7.10195V6.99999C7.10195 7.0677 7.0882 7.13471 7.06153 7.19695L6.86579 7.65366C6.62574 8.2138 6.50195 8.81687 6.50195 9.42628V14H7.41866C7.57474 14.3573 7.77119 14.6926 8.00199 15H6.00195C5.72581 15 5.50195 14.7761 5.50195 14.5V9.42628C5.50195 8.68144 5.65324 7.94436 5.94665 7.25974L6.10195 6.89736V5.34063ZM9.60156 2.00001C10.2025 2.00001 10.9885 2.00567 11.7682 2.4172C12.2951 2.69528 12.8539 3.17912 13.3368 4.04939C12.9359 3.83878 12.579 3.69343 12.2416 3.59501C11.5728 3.39995 11.0115 3.39998 10.4234 3.40001L10.4016 3.40001C10.2934 3.40001 10.1881 3.4351 10.1016 3.50001L8.76823 4.5H6.65195L5.91391 3.90957C5.82525 3.83865 5.7151 3.80001 5.60156 3.80001H4.40156C4.32394 3.80001 4.24738 3.81808 4.17796 3.85279L3.48353 4.20001H2.10156V2.00001H3.48353L4.17796 2.34722C4.24738 2.38193 4.32394 2.40001 4.40156 2.40001H5.60156C5.66517 2.40001 5.7282 2.38787 5.78726 2.36424L6.69785 2.00001H9.60156Z" fill="#6C707E"/>
</g>
<defs>
<clipPath id="clip0_16132_490">
<rect width="16" height="16" fill="white"/>
</clipPath>
</defs>
</svg>
